<svg width="26" height="22" viewBox="0 0 26 22" fill="none" xmlns="http://www.w3.org/2000/svg">
<path d="M24.7656 0.78125C25.0469 1.0625 25.0469 1.53125 24.7188 1.8125L16.4688 9.3125C16.1875 9.59375 15.7188 9.59375 15.4375 9.3125L9.90625 3.73438L2.17188 9.35938C1.84375 9.64062 1.375 9.54688 1.14062 9.21875C0.859375 8.89062 0.953125 8.42188 1.28125 8.1875L9.53125 2.1875C9.8125 1.95312 10.2344 2 10.5156 2.23438L16 7.71875L23.7344 0.734375C24.0156 0.453125 24.4844 0.453125 24.7656 0.78125ZM6.25 16.25V19.25C6.25 20.5156 5.21875 21.5 4 21.5C2.73438 21.5 1.75 20.5156 1.75 19.25V16.25C1.75 15.0312 2.73438 14 4 14C5.21875 14 6.25 15.0312 6.25 16.25ZM4.75 19.25V16.25C4.75 15.875 4.375 15.5 4 15.5C3.57812 15.5 3.25 15.875 3.25 16.25V19.25C3.25 19.6719 3.57812 20 4 20C4.375 20 4.75 19.6719 4.75 19.25ZM7.75 11.75C7.75 10.5312 8.73438 9.5 10 9.5C11.2188 9.5 12.25 10.5312 12.25 11.75V19.25C12.25 20.5156 11.2188 21.5 10 21.5C8.73438 21.5 7.75 20.5156 7.75 19.25V11.75ZM10 11C9.57812 11 9.25 11.375 9.25 11.75V19.25C9.25 19.6719 9.57812 20 10 20C10.375 20 10.75 19.6719 10.75 19.25V11.75C10.75 11.375 10.375 11 10 11ZM18.25 14.75V19.25C18.25 20.5156 17.2188 21.5 16 21.5C14.7344 21.5 13.75 20.5156 13.75 19.25V14.75C13.75 13.5312 14.7344 12.5 16 12.5C17.2188 12.5 18.25 13.5312 18.25 14.75ZM16.75 19.25V14.75C16.75 14.375 16.375 14 16 14C15.5781 14 15.25 14.375 15.25 14.75V19.25C15.25 19.6719 15.5781 20 16 20C16.375 20 16.75 19.6719 16.75 19.25ZM19.75 11.75C19.75 10.5312 20.7344 9.5 22 9.5C23.2188 9.5 24.25 10.5312 24.25 11.75V19.25C24.25 20.5156 23.2188 21.5 22 21.5C20.7344 21.5 19.75 20.5156 19.75 19.25V11.75ZM22 11C21.5781 11 21.25 11.375 21.25 11.75V19.25C21.25 19.6719 21.5781 20 22 20C22.375 20 22.75 19.6719 22.75 19.25V11.75C22.75 11.375 22.375 11 22 11Z" fill="#0D4048"/>
</svg>
