<svg width="30" height="24" viewBox="0 0 30 24" fill="none" xmlns="http://www.w3.org/2000/svg">
<path d="M18.75 5.625L16.7812 5.34375L15.9375 3.5625C15.5625 2.85938 14.3906 2.85938 14.0156 3.5625L13.1719 5.34375L11.2031 5.625C10.7812 5.71875 10.4531 5.95312 10.3594 6.375C10.2188 6.75 10.3125 7.17188 10.5938 7.45312L12.0469 8.8125L11.6719 10.7812C11.625 11.2031 11.7656 11.5781 12.0938 11.8125C12.4219 12.0469 12.8438 12.0938 13.2188 11.9062L14.9531 10.9688L16.7344 11.9062C16.875 12 17.0625 12 17.2031 12C17.4375 12 17.6719 11.9531 17.8594 11.8125C18.1875 11.5781 18.3281 11.2031 18.2812 10.7812L17.9062 8.8125L19.3594 7.45312C19.6406 7.17188 19.7344 6.75 19.5938 6.375C19.5 5.95312 19.1719 5.67188 18.75 5.625ZM16.3125 8.29688L16.6406 10.125L14.9531 9.28125L13.3125 10.125L13.6406 8.29688L12.3281 6.98438L14.1562 6.75L15 5.0625L15.7969 6.75L17.625 6.98438L16.3125 8.29688ZM28.3125 3.60938C28.2188 3.28125 27.9375 3 27.5625 3H22.4531C22.4531 2.71875 22.4531 2.4375 22.4531 2.20312C22.4531 0.984375 21.4219 0 20.2031 0H9.75C8.53125 0 7.5 0.984375 7.5 2.20312C7.5 2.4375 7.5 2.71875 7.5 3H2.39062C2.01562 3 1.73438 3.28125 1.64062 3.60938C1.59375 3.79688 0.65625 8.48438 3.60938 12.7969C5.53125 15.7031 8.71875 17.6719 13.0781 18.75C13.7344 18.8906 14.2031 19.5 14.2031 20.2031V22.5H9.75C9.32812 22.5 8.95312 22.875 8.95312 23.25C8.95312 23.6719 9.32812 24 9.75 24H20.2031C20.5781 24 20.9062 23.6719 20.9062 23.25C20.9062 22.875 20.625 22.5 20.2031 22.5H15.7031V20.2031C15.7031 19.5 16.1719 18.9375 16.8281 18.75C21.1875 17.6719 24.375 15.7031 26.3438 12.7969C29.2969 8.48438 28.3594 3.79688 28.3125 3.60938ZM4.82812 12C2.85938 9.04688 2.90625 5.8125 3.04688 4.5H7.5C7.64062 8.15625 8.4375 13.3594 11.2969 16.6406C8.4375 15.6094 6.23438 14.0625 4.82812 12ZM15 17.5781C9.28125 15.0469 8.90625 6.04688 9 2.25C9 1.82812 9.32812 1.5 9.75 1.5H20.2031C20.625 1.5 20.9531 1.82812 20.9531 2.25C21.0469 6.04688 20.6719 15.0469 15 17.5781ZM25.125 12C23.7188 14.0625 21.5156 15.6094 18.6562 16.6406C21.5156 13.3594 22.3125 8.15625 22.4531 4.5H26.9062C27.0469 5.8125 27.0938 9.04688 25.125 12Z" fill="#0D4048"/>
</svg>
