<svg width="30" height="22" viewBox="0 0 30 22" fill="none" xmlns="http://www.w3.org/2000/svg">
<path d="M15.75 11.75C15.75 12.1719 15.375 12.5 14.9531 12.5C14.5781 12.5 14.2031 12.1719 14.2031 11.75V5.75C14.2031 5.375 14.5781 5 14.9531 5C15.375 5 15.75 5.375 15.75 5.75V11.75ZM13.8281 15.5C13.8281 14.8906 14.3438 14.375 14.9531 14.375C15.6094 14.375 16.125 14.8906 16.125 15.5C16.125 16.1562 15.6094 16.625 14.9531 16.625C14.3438 16.625 13.8281 16.1562 13.8281 15.5ZM4.45312 11C4.45312 5.23438 9.1875 0.5 14.9531 0.5C20.7656 0.5 25.5 5.23438 25.5 11C25.5 16.8125 20.7656 21.5 14.9531 21.5C9.1875 21.5 4.45312 16.8125 4.45312 11ZM14.9531 20C19.9688 20 24 15.9688 24 11C24 6.03125 19.9688 2 14.9531 2C9.98438 2 5.95312 6.03125 5.95312 11C5.95312 15.9688 9.98438 20 14.9531 20ZM1.45312 11C1.45312 13.7188 2.25 16.2031 3.60938 18.3125C3.84375 18.6406 3.75 19.1094 3.375 19.3438C3.04688 19.5781 2.57812 19.4844 2.34375 19.1094C0.84375 16.7656 0 14 0 11C0 8.04688 0.84375 5.28125 2.34375 2.9375C2.57812 2.5625 3.04688 2.46875 3.375 2.70312C3.75 2.9375 3.84375 3.40625 3.60938 3.73438C2.25 5.84375 1.45312 8.32812 1.45312 11ZM30 11C30 14 29.1094 16.7656 27.6094 19.1094C27.375 19.4844 26.9062 19.5781 26.5781 19.3438C26.2031 19.1094 26.1094 18.6406 26.3438 18.3125C27.7031 16.2031 28.5 13.7188 28.5 11C28.5 8.32812 27.7031 5.84375 26.3438 3.73438C26.1094 3.40625 26.2031 2.9375 26.5781 2.70312C26.9062 2.46875 27.375 2.5625 27.6094 2.9375C29.1094 5.28125 30 8.04688 30 11Z" fill="#0D4048"/>
</svg>
