<svg width="22" height="24" viewBox="0 0 22 24" fill="none" xmlns="http://www.w3.org/2000/svg">
<path d="M11.75 18.375C11.75 18.7969 11.375 19.125 11 19.125C10.5781 19.125 10.25 18.7969 10.25 18.375V14.625C10.25 14.25 10.5781 13.875 11 13.875C11.375 13.875 11.75 14.25 11.75 14.625V18.375ZM11 0C14.2812 0 17 2.71875 17 6V9H17.75C19.8125 9 21.5 10.6875 21.5 12.75V20.25C21.5 22.3594 19.8125 24 17.75 24H4.25C2.14062 24 0.5 22.3594 0.5 20.25V12.75C0.5 10.6875 2.14062 9 4.25 9H5V6C5 2.71875 7.67188 0 11 0ZM11 1.5C8.46875 1.5 6.5 3.51562 6.5 6V9H15.5V6C15.5 3.51562 13.4844 1.5 11 1.5ZM4.25 10.5C2.98438 10.5 2 11.5312 2 12.75V20.25C2 21.5156 2.98438 22.5 4.25 22.5H17.75C18.9688 22.5 20 21.5156 20 20.25V12.75C20 11.5312 18.9688 10.5 17.75 10.5H4.25Z" fill="#0D4048"/>
</svg>
