<svg width="26" height="24" viewBox="0 0 26 24" fill="none" xmlns="http://www.w3.org/2000/svg">
<path d="M13.5 11.25C13.0781 11.25 12.75 10.9219 12.75 10.5V0.75C12.75 0.375 13.0312 0.046875 13.4062 0.046875L13.5 0C19.2656 0 24 4.73438 24 10.5L23.9531 10.5938C23.9531 10.9688 23.625 11.25 23.25 11.25H13.5ZM14.25 1.54688V9.75H22.4531C22.0781 5.39062 18.6094 1.92188 14.25 1.54688ZM10.5 2.34375V13.5L17.8125 20.8594C18.1406 21.1875 18.0938 21.7031 17.7656 21.9375C15.8906 23.25 13.6406 24 11.25 24C5.01562 24 0 18.9844 0 12.75C0 7.07812 4.21875 2.39062 9.65625 1.64062C10.125 1.54688 10.5 1.92188 10.5 2.34375ZM9.42188 14.5781C9.14062 14.2969 9 13.9219 9 13.5V3.28125C4.6875 4.3125 1.5 8.15625 1.5 12.75C1.5 18.1406 5.85938 22.5 11.25 22.5C12.9844 22.5 14.625 22.0312 16.0781 21.2344L9.42188 14.5781ZM21.8906 21C21.6094 21.2344 21.1875 21.2344 20.9062 20.9531L14.7656 14.8125C14.2969 14.3438 14.625 13.5 15.2812 13.5H24.6562C25.0781 13.5 25.4531 13.875 25.3594 14.2969C25.0312 16.9219 23.7656 19.2656 21.8906 21ZM23.7188 15H17.1094L21.4219 19.3594C22.5469 18.1406 23.3438 16.6406 23.7188 15Z" fill="#0D4048"/>
</svg>
